<svg width="302" height="40" viewBox="0 0 302 40" fill="none" xmlns="http://www.w3.org/2000/svg">
<g clip-path="url(#clip0_488_8909)">
<rect width="302" height="40" rx="2" fill="#314251"/>
<rect width="302" height="40" rx="2" fill="#313131"/>
<g clip-path="url(#clip1_488_8909)">
<path d="M43.3803 11.9588C44.1731 12.8703 44.5695 14.0893 44.5695 15.6158V22.8855H41.3239V16.1252C41.3239 14.332 40.6273 13.4354 39.2342 13.4354C38.7301 13.4236 38.2329 13.5547 37.8002 13.8135C37.3852 14.0732 37.059 14.4531 36.8651 14.9027C36.6398 15.4289 36.5299 15.9973 36.5427 16.5696V22.8831H33.2983V10.8789H35.5222L36.167 12.3686C36.3888 12.0875 36.6468 11.8371 36.9342 11.6238C37.2287 11.4057 37.5454 11.2194 37.8791 11.068C38.2246 10.9109 38.5861 10.7916 38.9573 10.7122C39.3482 10.6295 39.7469 10.5886 40.1465 10.5903C40.7535 10.5622 41.3591 10.6706 41.9187 10.9074C42.4784 11.1442 42.9778 11.5035 43.3803 11.9588V11.9588Z" fill="white"/>
<path d="M58.3088 17.7903H49.2384C49.3231 18.5127 49.6667 19.18 50.2056 19.6686C50.7591 20.1205 51.459 20.3538 52.1729 20.3244C52.6926 20.3318 53.2055 20.2058 53.6626 19.9585C54.0972 19.7237 54.4587 19.3737 54.7074 18.9469H58.1311C57.7268 20.2031 56.9295 21.2961 55.8568 22.0647C54.7841 22.8333 53.4928 23.2369 52.1733 23.2158C51.3463 23.2374 50.5238 23.0865 49.7582 22.7726C48.9927 22.4587 48.301 21.9888 47.7272 21.3928C47.1431 20.7984 46.6847 20.0925 46.3791 19.3172C46.0736 18.5419 45.9273 17.713 45.9489 16.88C45.9461 16.187 46.0473 15.4975 46.2489 14.8346C46.4379 14.2049 46.7308 13.6112 47.1157 13.0782C47.487 12.5663 47.933 12.113 48.4387 11.7333C48.9567 11.348 49.5351 11.0512 50.1503 10.8551C50.8039 10.645 51.4868 10.5399 52.1733 10.5437C53.3082 10.5264 54.4265 10.8185 55.408 11.3885C56.3426 11.9294 57.1055 12.7231 57.6091 13.6783C58.1225 14.6507 58.386 15.7356 58.3759 16.8352C58.3751 17.1547 58.3526 17.4738 58.3088 17.7903ZM50.3402 13.8999C49.8267 14.3273 49.4707 14.914 49.3286 15.5668H55.1307C55.0026 15.1157 54.7833 14.6957 54.4863 14.3329C54.2112 14.0042 53.8654 13.742 53.4748 13.5657C53.0653 13.3843 52.6215 13.2933 52.1738 13.299C51.5105 13.2778 50.8608 13.4905 50.3385 13.8999H50.3402Z" fill="white"/>
<path d="M25.2941 9.9375C23.9754 9.9375 22.6862 10.3286 21.5898 11.0612C20.4933 11.7939 19.6387 12.8352 19.134 14.0535C18.6294 15.2719 18.4973 16.6125 18.7546 17.9059C19.0119 19.1993 19.6469 20.3874 20.5794 21.3198C21.5119 22.2523 22.6999 22.8874 23.9933 23.1446C25.2867 23.4019 26.6273 23.2699 27.8457 22.7652C29.064 22.2606 30.1054 21.4059 30.838 20.3095C31.5707 19.213 31.9617 17.9239 31.9617 16.6051C31.9617 14.8368 31.2592 13.1408 30.0088 11.8904C28.7584 10.64 27.0625 9.9375 25.2941 9.9375V9.9375ZM26.7536 20.6659C26.7292 20.6892 26.7004 20.7073 26.6688 20.7192C26.6372 20.731 26.6036 20.7364 26.5699 20.735H26.5642C26.4101 20.735 26.2564 20.735 26.1027 20.735H24.8623C24.659 20.735 24.5712 20.6464 24.5712 20.4467V19.7621C24.5712 18.0261 24.5712 17.5837 24.5712 15.6334L24.5058 15.6599C24.4116 15.7116 24.3115 15.7519 24.2078 15.7798L24.1956 15.7847C24.1354 15.8131 24.0707 15.8306 24.0045 15.8363C23.9516 15.8477 23.8996 15.8603 23.8471 15.8725C23.7487 15.8961 23.6475 15.9205 23.5418 15.9371H23.5349C23.517 15.9394 23.4993 15.943 23.482 15.9481L23.4613 15.9542H23.4442C23.4223 15.9588 23.4 15.9614 23.3776 15.962L23.18 15.9815L23.0625 15.9928C23.0264 15.9984 22.9895 15.996 22.9544 15.9859C22.9193 15.9758 22.8868 15.9582 22.8592 15.9343C22.8331 15.9099 22.8126 15.88 22.7992 15.8469C22.7858 15.8138 22.7798 15.7781 22.7815 15.7424C22.7829 15.1851 22.7829 14.6281 22.7815 14.0714C22.7792 14.0382 22.7838 14.0049 22.7951 13.9735C22.8064 13.9422 22.824 13.9136 22.847 13.8894C22.8699 13.8653 22.8977 13.8462 22.9284 13.8334C22.9591 13.8205 22.9922 13.8142 23.0255 13.8149C23.1208 13.8072 23.2151 13.7896 23.3068 13.7624L23.3625 13.7482C23.4436 13.7297 23.5223 13.7024 23.5975 13.6669L23.6064 13.6628L23.8756 13.5441C24.1088 13.4538 24.3112 13.2986 24.459 13.0969C24.5078 13.0259 24.5414 12.9457 24.5578 12.8611C24.5655 12.789 24.6012 12.7229 24.6571 12.6768C24.7131 12.6307 24.7848 12.6085 24.857 12.6147H26.5398C26.6128 12.6073 26.6858 12.6289 26.7431 12.6749C26.7707 12.7019 26.7919 12.7348 26.8051 12.7711C26.8184 12.8074 26.8233 12.8462 26.8195 12.8847V15.5403C26.8195 16.7458 26.8195 17.7406 26.8195 19.5913V19.8092C26.8195 20.0324 26.8195 20.2565 26.8228 20.4789C26.8251 20.5131 26.8201 20.5475 26.8082 20.5797C26.7963 20.612 26.7777 20.6413 26.7536 20.6659V20.6659Z" fill="white"/>
<path d="M27.6216 32.1907C27.1763 31.9412 26.8095 31.5724 26.5621 31.1259C26.305 30.6643 26.173 30.1435 26.1791 29.6151C26.1694 29.2249 26.2389 28.8366 26.3834 28.474C26.528 28.1114 26.7446 27.7818 27.0202 27.5053C27.2958 27.2288 27.6246 27.011 27.9867 26.8652C28.3489 26.7194 28.7368 26.6486 29.1271 26.657C29.7555 26.6427 30.3707 26.8384 30.8753 27.2131C31.3657 27.5798 31.7186 28.1008 31.8771 28.6922H30.9961C30.8363 28.3378 30.5753 28.0385 30.246 27.8319C29.9117 27.6215 29.5237 27.5123 29.1287 27.5173C28.8578 27.5106 28.5885 27.5608 28.3382 27.6647C28.0879 27.7687 27.8622 27.924 27.6757 28.1206C27.484 28.3185 27.3337 28.5526 27.2337 28.8093C27.1338 29.066 27.0861 29.3402 27.0935 29.6155C27.0885 29.9871 27.1788 30.3536 27.3557 30.6803C27.5257 30.9936 27.7777 31.2547 28.0847 31.4357C28.4006 31.6224 28.7618 31.7185 29.1287 31.7138C29.5212 31.7196 29.9066 31.6082 30.2354 31.3938C30.5647 31.1759 30.825 30.8684 30.9855 30.5075H31.8877C31.7309 31.1094 31.3739 31.64 30.8753 32.0118C30.371 32.3877 29.756 32.5852 29.1271 32.5733C28.6004 32.5799 28.0812 32.448 27.6216 32.1907V32.1907Z" fill="white"/>
<path d="M38.6724 26.7801V32.4448H37.9275L37.8332 31.5845C37.5691 31.8979 37.2373 32.1471 36.8628 32.3134C36.4681 32.4876 36.0407 32.5752 35.6093 32.5704C35.222 32.5803 34.8368 32.5105 34.4777 32.3652C34.1185 32.22 33.7931 32.0024 33.5216 31.726C32.9824 31.1541 32.6821 30.3978 32.6821 29.6118C32.6821 28.8259 32.9824 28.0696 33.5216 27.4977C33.7931 27.2213 34.1185 27.0037 34.4777 26.8585C34.8368 26.7132 35.222 26.6433 35.6093 26.6533C36.0447 26.6478 36.4761 26.7373 36.8733 26.9155C37.2475 27.0851 37.579 27.3361 37.8438 27.6502L37.9593 26.7793L38.6724 26.7801ZM37.1722 31.1125C37.5497 30.7042 37.7594 30.1685 37.7594 29.6124C37.7594 29.0563 37.5497 28.5207 37.1722 28.1124C36.7702 27.7279 36.2351 27.5137 35.6788 27.5147C35.1225 27.5157 34.5882 27.7318 34.1876 28.1177C33.8069 28.5224 33.5949 29.0571 33.5949 29.6127C33.5949 30.1683 33.8069 30.7029 34.1876 31.1076C34.5882 31.4936 35.1225 31.7096 35.6788 31.7106C36.2351 31.7116 36.7702 31.4974 37.1722 31.1129V31.1125Z" fill="white"/>
<path d="M43.551 26.7489V27.5986H42.9741C42.7536 27.5858 42.5331 27.6208 42.3275 27.7014C42.1219 27.782 41.9362 27.9061 41.7832 28.0653C41.481 28.4311 41.3292 28.898 41.3584 29.3716V32.4452H40.4668V26.7802H41.0961L41.2429 27.6405C41.4422 27.3498 41.7127 27.1152 42.0287 26.9591C42.3446 26.8029 42.6953 26.7306 43.0472 26.7489H43.551Z" fill="white"/>
<path d="M49.7924 24.7578V32.4467H49.1106L48.9846 31.6389C48.7103 31.9263 48.3819 32.1567 48.0183 32.3168C47.6547 32.477 47.2631 32.5637 46.8659 32.572C46.4687 32.5803 46.0737 32.51 45.7038 32.3653C45.3338 32.2205 44.996 32.004 44.71 31.7283C44.1802 31.1509 43.8862 30.3957 43.8862 29.612C43.8862 28.8283 44.1802 28.0731 44.71 27.4956C45.2746 26.9569 46.025 26.6563 46.8054 26.6563C47.5858 26.6563 48.3362 26.9569 48.9008 27.4956V24.7578H49.7924ZM48.3658 31.1096C48.7488 30.7053 48.9628 30.1699 48.9638 29.613C48.9648 29.0561 48.7527 28.52 48.3711 28.1144C48.1763 27.9174 47.9431 27.7626 47.6859 27.6597C47.4287 27.5568 47.153 27.508 46.8761 27.5164C46.5917 27.5145 46.3098 27.5698 46.0472 27.679C45.8005 27.7794 45.5761 27.9274 45.3865 28.1144C45.1992 28.3047 45.0528 28.5314 44.9564 28.7804C44.851 29.0457 44.7976 29.3287 44.799 29.6142C44.7907 29.891 44.8385 30.1665 44.9395 30.4244C45.0404 30.6822 45.1925 30.9169 45.3865 31.1144C45.5791 31.3113 45.8105 31.4661 46.066 31.569C46.3215 31.672 46.5955 31.7208 46.8709 31.7125C47.1481 31.72 47.4239 31.6704 47.6811 31.5666C47.9383 31.4629 48.1714 31.3073 48.3658 31.1096V31.1096Z" fill="white"/>
</g>
<path d="M78 6.19531L78 33.8085" stroke="white" stroke-width="0.4" stroke-miterlimit="10"/>
<path d="M87.52 18.13C86.64 18.13 85.94 17.92 85.42 17.5C84.9067 17.08 84.65 16.44 84.65 15.58V10.56H85.67V15.49C85.67 16.0967 85.8267 16.5433 86.14 16.83C86.46 17.11 86.9267 17.25 87.54 17.25C88.76 17.25 89.37 16.6633 89.37 15.49V10.56H90.39V15.58C90.39 16.44 90.1267 17.08 89.6 17.5C89.08 17.92 88.3867 18.13 87.52 18.13ZM92.601 12.63V13.45H92.631C93.051 12.81 93.621 12.49 94.341 12.49C94.7943 12.49 95.1943 12.6033 95.541 12.83C95.8943 13.0567 96.1677 13.3833 96.361 13.81C96.5543 14.23 96.651 14.73 96.651 15.31C96.651 15.8833 96.5543 16.3833 96.361 16.81C96.1743 17.2367 95.9043 17.5667 95.551 17.8C95.2043 18.0333 94.791 18.15 94.311 18.15C93.9443 18.15 93.6177 18.0767 93.331 17.93C93.0443 17.7767 92.8077 17.56 92.621 17.28H92.591C92.6043 17.5333 92.611 17.8333 92.611 18.18V19.82H91.681V12.63H92.601ZM94.211 17.37C94.691 17.37 95.0577 17.1833 95.311 16.81C95.571 16.4367 95.701 15.9433 95.701 15.33C95.701 14.7167 95.5743 14.22 95.321 13.84C95.0677 13.46 94.701 13.27 94.221 13.27C93.6743 13.27 93.261 13.4633 92.981 13.85C92.701 14.2367 92.561 14.73 92.561 15.33C92.561 15.9433 92.6943 16.4367 92.961 16.81C93.2277 17.1833 93.6443 17.37 94.211 17.37ZM99.2216 18.04C98.8416 18.04 98.5416 17.9533 98.3216 17.78C98.1082 17.6067 98.0016 17.33 98.0016 16.95V13.35H97.1616V12.63H98.0016V10.94H98.9216V12.63H100.032V13.35H98.9216V16.74C98.9216 16.9267 98.9682 17.0567 99.0616 17.13C99.1549 17.2033 99.2916 17.24 99.4716 17.24C99.6316 17.24 99.7882 17.2167 99.9416 17.17H99.9716V17.95C99.7249 18.01 99.4749 18.04 99.2216 18.04ZM103.289 18.15C102.762 18.15 102.299 18.0267 101.899 17.78C101.505 17.5267 101.199 17.1833 100.979 16.75C100.765 16.3167 100.659 15.8367 100.659 15.31C100.659 14.79 100.765 14.3167 100.979 13.89C101.199 13.4633 101.505 13.1267 101.899 12.88C102.299 12.6267 102.762 12.5 103.289 12.5C103.815 12.5 104.275 12.6267 104.669 12.88C105.062 13.1267 105.365 13.4633 105.579 13.89C105.792 14.3167 105.899 14.79 105.899 15.31C105.899 15.8367 105.792 16.3167 105.579 16.75C105.365 17.1833 105.062 17.5267 104.669 17.78C104.275 18.0267 103.815 18.15 103.289 18.15ZM103.279 17.38C103.812 17.38 104.222 17.1867 104.509 16.8C104.802 16.4133 104.949 15.9167 104.949 15.31C104.949 14.71 104.802 14.2133 104.509 13.82C104.215 13.4267 103.805 13.23 103.279 13.23C102.752 13.23 102.342 13.4267 102.049 13.82C101.755 14.2133 101.609 14.71 101.609 15.31C101.609 15.9167 101.752 16.4133 102.039 16.8C102.332 17.1867 102.745 17.38 103.279 17.38ZM111.582 18L109.692 14.7V14.26H109.912C110.266 14.26 110.562 14.2267 110.802 14.16C111.049 14.0933 111.242 13.9833 111.382 13.83C111.522 13.6767 111.606 13.4667 111.632 13.2H109.692V12.56H111.622C111.576 12.3133 111.482 12.1133 111.342 11.96C111.202 11.8 111.012 11.6833 110.772 11.61C110.539 11.5367 110.252 11.5 109.912 11.5H109.692V10.86H113.832V11.5H111.942C112.096 11.6267 112.222 11.7767 112.322 11.95C112.422 12.1233 112.486 12.3267 112.512 12.56H113.832V13.2H112.532C112.486 13.6867 112.299 14.0667 111.972 14.34C111.652 14.6067 111.226 14.7767 110.692 14.85L112.602 18H111.582ZM118.435 15.13C117.788 15.5033 117.288 15.8367 116.935 16.13C116.582 16.4167 116.355 16.7333 116.255 17.08H120.255V18H115.045C115.072 17.3933 115.205 16.8867 115.445 16.48C115.685 16.0733 115.985 15.7333 116.345 15.46C116.712 15.18 117.222 14.8533 117.875 14.48C118.242 14.2667 118.525 14.0867 118.725 13.94C118.925 13.7867 119.082 13.6133 119.195 13.42C119.308 13.22 119.365 12.98 119.365 12.7C119.365 12.2533 119.232 11.8967 118.965 11.63C118.705 11.3567 118.348 11.22 117.895 11.22C117.362 11.22 116.952 11.3733 116.665 11.68C116.385 11.9867 116.245 12.4333 116.245 13.02H115.225C115.225 12.4733 115.335 12.0033 115.555 11.61C115.782 11.21 116.095 10.9067 116.495 10.7C116.902 10.4867 117.368 10.38 117.895 10.38C118.395 10.38 118.832 10.48 119.205 10.68C119.585 10.8733 119.878 11.1467 120.085 11.5C120.292 11.8467 120.395 12.24 120.395 12.68C120.395 13.0867 120.315 13.4333 120.155 13.72C119.995 14 119.788 14.2367 119.535 14.43C119.282 14.6167 118.915 14.85 118.435 15.13ZM124.355 18.17C123.748 18.17 123.222 18.01 122.775 17.69C122.335 17.37 121.998 16.9167 121.765 16.33C121.532 15.7433 121.415 15.0567 121.415 14.27C121.415 13.4767 121.535 12.79 121.775 12.21C122.022 11.6233 122.365 11.1733 122.805 10.86C123.252 10.54 123.772 10.38 124.365 10.38C124.958 10.38 125.475 10.5367 125.915 10.85C126.355 11.1567 126.695 11.6033 126.935 12.19C127.175 12.7767 127.295 13.47 127.295 14.27C127.295 15.0567 127.178 15.7433 126.945 16.33C126.712 16.9167 126.375 17.37 125.935 17.69C125.495 18.01 124.968 18.17 124.355 18.17ZM124.365 17.32C124.998 17.32 125.472 17.0567 125.785 16.53C126.098 15.9967 126.255 15.2433 126.255 14.27C126.255 13.3167 126.095 12.57 125.775 12.03C125.455 11.49 124.985 11.22 124.365 11.22C123.738 11.22 123.262 11.49 122.935 12.03C122.615 12.5633 122.455 13.31 122.455 14.27C122.455 15.2233 122.615 15.97 122.935 16.51C123.262 17.05 123.738 17.32 124.365 17.32ZM131.318 18.17C130.711 18.17 130.185 18.01 129.738 17.69C129.298 17.37 128.961 16.9167 128.728 16.33C128.495 15.7433 128.378 15.0567 128.378 14.27C128.378 13.4767 128.498 12.79 128.738 12.21C128.985 11.6233 129.328 11.1733 129.768 10.86C130.215 10.54 130.735 10.38 131.328 10.38C131.921 10.38 132.438 10.5367 132.878 10.85C133.318 11.1567 133.658 11.6033 133.898 12.19C134.138 12.7767 134.258 13.47 134.258 14.27C134.258 15.0567 134.141 15.7433 133.908 16.33C133.675 16.9167 133.338 17.37 132.898 17.69C132.458 18.01 131.931 18.17 131.318 18.17ZM131.328 17.32C131.961 17.32 132.435 17.0567 132.748 16.53C133.061 15.9967 133.218 15.2433 133.218 14.27C133.218 13.3167 133.058 12.57 132.738 12.03C132.418 11.49 131.948 11.22 131.328 11.22C130.701 11.22 130.225 11.49 129.898 12.03C129.578 12.5633 129.418 13.31 129.418 14.27C129.418 15.2233 129.578 15.97 129.898 16.51C130.225 17.05 130.701 17.32 131.328 17.32ZM138.281 18.17C137.674 18.17 137.147 18.01 136.701 17.69C136.261 17.37 135.924 16.9167 135.691 16.33C135.457 15.7433 135.341 15.0567 135.341 14.27C135.341 13.4767 135.461 12.79 135.701 12.21C135.947 11.6233 136.291 11.1733 136.731 10.86C137.177 10.54 137.697 10.38 138.291 10.38C138.884 10.38 139.401 10.5367 139.841 10.85C140.281 11.1567 140.621 11.6033 140.861 12.19C141.101 12.7767 141.221 13.47 141.221 14.27C141.221 15.0567 141.104 15.7433 140.871 16.33C140.637 16.9167 140.301 17.37 139.861 17.69C139.421 18.01 138.894 18.17 138.281 18.17ZM138.291 17.32C138.924 17.32 139.397 17.0567 139.711 16.53C140.024 15.9967 140.181 15.2433 140.181 14.27C140.181 13.3167 140.021 12.57 139.701 12.03C139.381 11.49 138.911 11.22 138.291 11.22C137.664 11.22 137.187 11.49 136.861 12.03C136.541 12.5633 136.381 13.31 136.381 14.27C136.381 15.2233 136.541 15.97 136.861 16.51C137.187 17.05 137.664 17.32 138.291 17.32ZM145.21 10.56H146.23V18H145.21V10.56ZM148.578 12.63V13.39H148.608C149.034 12.7967 149.601 12.5 150.308 12.5C150.874 12.5 151.318 12.6533 151.638 12.96C151.958 13.2667 152.118 13.6967 152.118 14.25V18H151.198V14.36C151.198 14.02 151.091 13.7567 150.878 13.57C150.671 13.3767 150.384 13.28 150.018 13.28C149.598 13.28 149.254 13.4167 148.988 13.69C148.721 13.9567 148.588 14.3033 148.588 14.73V18H147.658V12.63H148.578ZM155.43 18.14C154.704 18.14 154.13 17.98 153.71 17.66C153.297 17.34 153.07 16.9033 153.03 16.35H153.97C154.07 17.0433 154.564 17.39 155.45 17.39C155.857 17.39 156.16 17.3133 156.36 17.16C156.56 17 156.66 16.7933 156.66 16.54C156.66 16.3533 156.61 16.2033 156.51 16.09C156.417 15.9767 156.274 15.8867 156.08 15.82C155.894 15.7533 155.624 15.6833 155.27 15.61C154.817 15.5167 154.457 15.4233 154.19 15.33C153.924 15.23 153.7 15.0733 153.52 14.86C153.347 14.6467 153.26 14.3567 153.26 13.99C153.26 13.5233 153.434 13.1567 153.78 12.89C154.127 12.6233 154.61 12.49 155.23 12.49C155.884 12.49 156.387 12.63 156.74 12.91C157.1 13.1833 157.31 13.5633 157.37 14.05H156.44C156.354 13.4767 155.944 13.19 155.21 13.19C154.864 13.19 154.604 13.26 154.43 13.4C154.257 13.54 154.17 13.72 154.17 13.94C154.17 14.12 154.224 14.26 154.33 14.36C154.437 14.46 154.58 14.54 154.76 14.6C154.947 14.6533 155.227 14.7167 155.6 14.79C156.04 14.8767 156.394 14.9733 156.66 15.08C156.934 15.18 157.157 15.3433 157.33 15.57C157.504 15.79 157.59 16.0967 157.59 16.49C157.59 17.0167 157.394 17.4233 157 17.71C156.607 17.9967 156.084 18.14 155.43 18.14ZM160.227 18.04C159.847 18.04 159.547 17.9533 159.327 17.78C159.114 17.6067 159.007 17.33 159.007 16.95V13.35H158.167V12.63H159.007V10.94H159.927V12.63H161.037V13.35H159.927V16.74C159.927 16.9267 159.974 17.0567 160.067 17.13C160.161 17.2033 160.297 17.24 160.477 17.24C160.637 17.24 160.794 17.2167 160.947 17.17H160.977V17.95C160.731 18.01 160.481 18.04 160.227 18.04ZM166.863 17.35V18C166.69 18.0533 166.523 18.08 166.363 18.08C166.11 18.08 165.9 18.01 165.733 17.87C165.567 17.7233 165.463 17.5033 165.423 17.21H165.403C165.223 17.4767 164.983 17.6933 164.683 17.86C164.383 18.0267 164.023 18.11 163.603 18.11C163.07 18.11 162.633 17.98 162.293 17.72C161.953 17.4533 161.783 17.0733 161.783 16.58C161.783 16.18 161.873 15.8667 162.053 15.64C162.24 15.4133 162.493 15.25 162.813 15.15C163.14 15.0433 163.567 14.9567 164.093 14.89C164.54 14.8367 164.867 14.76 165.073 14.66C165.287 14.5533 165.393 14.3733 165.393 14.12C165.393 13.8267 165.293 13.5967 165.093 13.43C164.893 13.2633 164.61 13.18 164.243 13.18C163.83 13.18 163.513 13.2733 163.293 13.46C163.08 13.64 162.967 13.8933 162.953 14.22H162.053C162.067 13.9067 162.157 13.62 162.323 13.36C162.49 13.1 162.733 12.8933 163.053 12.74C163.373 12.58 163.767 12.5 164.233 12.5C164.773 12.5 165.207 12.5967 165.533 12.79C166.013 13.0767 166.253 13.5633 166.253 14.25V16.76C166.253 16.9667 166.283 17.1233 166.343 17.23C166.403 17.33 166.507 17.38 166.653 17.38C166.727 17.38 166.787 17.37 166.833 17.35H166.863ZM163.833 17.43C164.167 17.43 164.453 17.36 164.693 17.22C164.933 17.0733 165.11 16.8933 165.223 16.68C165.343 16.46 165.403 16.24 165.403 16.02V15.14C165.163 15.2933 164.77 15.42 164.223 15.52C163.883 15.58 163.613 15.6433 163.413 15.71C163.213 15.7767 163.053 15.88 162.933 16.02C162.82 16.1533 162.763 16.3367 162.763 16.57C162.763 17.1433 163.12 17.43 163.833 17.43ZM168.539 12.63V13.39H168.569C168.995 12.7967 169.562 12.5 170.269 12.5C170.835 12.5 171.279 12.6533 171.599 12.96C171.919 13.2667 172.079 13.6967 172.079 14.25V18H171.159V14.36C171.159 14.02 171.052 13.7567 170.839 13.57C170.632 13.3767 170.345 13.28 169.979 13.28C169.559 13.28 169.215 13.4167 168.949 13.69C168.682 13.9567 168.549 14.3033 168.549 14.73V18H167.619V12.63H168.539ZM174.964 18.04C174.584 18.04 174.284 17.9533 174.064 17.78C173.85 17.6067 173.744 17.33 173.744 16.95V13.35H172.904V12.63H173.744V10.94H174.664V12.63H175.774V13.35H174.664V16.74C174.664 16.9267 174.71 17.0567 174.804 17.13C174.897 17.2033 175.034 17.24 175.214 17.24C175.374 17.24 175.53 17.2167 175.684 17.17H175.714V17.95C175.467 18.01 175.217 18.04 174.964 18.04ZM182.276 10.56C183.356 10.56 184.179 10.9 184.746 11.58C185.313 12.2533 185.596 13.1633 185.596 14.31C185.596 15.0567 185.466 15.7067 185.206 16.26C184.953 16.8133 184.569 17.2433 184.056 17.55C183.549 17.85 182.933 18 182.206 18H179.526V10.56H182.276ZM182.166 17.11C182.979 17.11 183.576 16.8667 183.956 16.38C184.343 15.8933 184.536 15.2033 184.536 14.31C184.536 12.4033 183.766 11.45 182.226 11.45H180.556V17.11H182.166ZM187.19 11.66C187.023 11.66 186.883 11.6067 186.77 11.5C186.657 11.3867 186.6 11.25 186.6 11.09C186.6 10.93 186.657 10.7967 186.77 10.69C186.883 10.5767 187.023 10.52 187.19 10.52C187.35 10.52 187.487 10.5767 187.6 10.69C187.713 10.7967 187.77 10.93 187.77 11.09C187.77 11.25 187.713 11.3867 187.6 11.5C187.487 11.6067 187.35 11.66 187.19 11.66ZM186.72 12.63H187.65V18H186.72V12.63ZM190.987 18.14C190.26 18.14 189.687 17.98 189.267 17.66C188.854 17.34 188.627 16.9033 188.587 16.35H189.527C189.627 17.0433 190.12 17.39 191.007 17.39C191.414 17.39 191.717 17.3133 191.917 17.16C192.117 17 192.217 16.7933 192.217 16.54C192.217 16.3533 192.167 16.2033 192.067 16.09C191.974 15.9767 191.83 15.8867 191.637 15.82C191.45 15.7533 191.18 15.6833 190.827 15.61C190.374 15.5167 190.014 15.4233 189.747 15.33C189.48 15.23 189.257 15.0733 189.077 14.86C188.904 14.6467 188.817 14.3567 188.817 13.99C188.817 13.5233 188.99 13.1567 189.337 12.89C189.684 12.6233 190.167 12.49 190.787 12.49C191.44 12.49 191.944 12.63 192.297 12.91C192.657 13.1833 192.867 13.5633 192.927 14.05H191.997C191.91 13.4767 191.5 13.19 190.767 13.19C190.42 13.19 190.16 13.26 189.987 13.4C189.814 13.54 189.727 13.72 189.727 13.94C189.727 14.12 189.78 14.26 189.887 14.36C189.994 14.46 190.137 14.54 190.317 14.6C190.504 14.6533 190.784 14.7167 191.157 14.79C191.597 14.8767 191.95 14.9733 192.217 15.08C192.49 15.18 192.714 15.3433 192.887 15.57C193.06 15.79 193.147 16.0967 193.147 16.49C193.147 17.0167 192.95 17.4233 192.557 17.71C192.164 17.9967 191.64 18.14 190.987 18.14ZM196.579 18.14C196.059 18.14 195.599 18.0167 195.199 17.77C194.799 17.5167 194.493 17.1767 194.279 16.75C194.066 16.3167 193.959 15.8367 193.959 15.31C193.959 14.79 194.066 14.3167 194.279 13.89C194.493 13.4567 194.799 13.1167 195.199 12.87C195.599 12.6167 196.059 12.49 196.579 12.49C197.219 12.49 197.743 12.66 198.149 13C198.556 13.3333 198.806 13.79 198.899 14.37H197.969C197.903 14.0167 197.749 13.74 197.509 13.54C197.276 13.34 196.966 13.24 196.579 13.24C196.046 13.24 195.633 13.4333 195.339 13.82C195.053 14.2067 194.909 14.7033 194.909 15.31C194.909 15.9167 195.053 16.4133 195.339 16.8C195.633 17.1867 196.046 17.38 196.579 17.38C196.993 17.38 197.323 17.2667 197.569 17.04C197.816 16.8133 197.956 16.4967 197.989 16.09H198.909C198.849 16.73 198.616 17.2333 198.209 17.6C197.803 17.96 197.259 18.14 196.579 18.14ZM202.185 18.15C201.658 18.15 201.195 18.0267 200.795 17.78C200.402 17.5267 200.095 17.1833 199.875 16.75C199.662 16.3167 199.555 15.8367 199.555 15.31C199.555 14.79 199.662 14.3167 199.875 13.89C200.095 13.4633 200.402 13.1267 200.795 12.88C201.195 12.6267 201.658 12.5 202.185 12.5C202.712 12.5 203.172 12.6267 203.565 12.88C203.958 13.1267 204.262 13.4633 204.475 13.89C204.688 14.3167 204.795 14.79 204.795 15.31C204.795 15.8367 204.688 16.3167 204.475 16.75C204.262 17.1833 203.958 17.5267 203.565 17.78C203.172 18.0267 202.712 18.15 202.185 18.15ZM202.175 17.38C202.708 17.38 203.118 17.1867 203.405 16.8C203.698 16.4133 203.845 15.9167 203.845 15.31C203.845 14.71 203.698 14.2133 203.405 13.82C203.112 13.4267 202.702 13.23 202.175 13.23C201.648 13.23 201.238 13.4267 200.945 13.82C200.652 14.2133 200.505 14.71 200.505 15.31C200.505 15.9167 200.648 16.4133 200.935 16.8C201.228 17.1867 201.642 17.38 202.175 17.38ZM207.573 18.12C207.013 18.12 206.569 17.96 206.243 17.64C205.916 17.32 205.753 16.8833 205.753 16.33V12.63H206.683V16.28C206.683 16.62 206.786 16.8867 206.993 17.08C207.199 17.2667 207.486 17.36 207.853 17.36C208.259 17.36 208.586 17.2233 208.833 16.95C209.079 16.67 209.203 16.32 209.203 15.9V12.63H210.133V18H209.213V17.25H209.193C208.986 17.5367 208.756 17.7533 208.503 17.9C208.249 18.0467 207.939 18.12 207.573 18.12ZM212.347 12.63V13.39H212.377C212.804 12.7967 213.37 12.5 214.077 12.5C214.644 12.5 215.087 12.6533 215.407 12.96C215.727 13.2667 215.887 13.6967 215.887 14.25V18H214.967V14.36C214.967 14.02 214.86 13.7567 214.647 13.57C214.44 13.3767 214.154 13.28 213.787 13.28C213.367 13.28 213.024 13.4167 212.757 13.69C212.49 13.9567 212.357 14.3033 212.357 14.73V18H211.427V12.63H212.347ZM218.772 18.04C218.392 18.04 218.092 17.9533 217.872 17.78C217.659 17.6067 217.552 17.33 217.552 16.95V13.35H216.712V12.63H217.552V10.94H218.472V12.63H219.582V13.35H218.472V16.74C218.472 16.9267 218.519 17.0567 218.612 17.13C218.706 17.2033 218.842 17.24 219.022 17.24C219.182 17.24 219.339 17.2167 219.492 17.17H219.522V17.95C219.276 18.01 219.026 18.04 218.772 18.04ZM223.654 12.63L224.494 15.61C224.601 15.9967 224.718 16.52 224.844 17.18H224.864C224.991 16.56 225.111 16.0433 225.224 15.63L226.034 12.63H226.914L227.714 15.63C227.808 15.99 227.921 16.51 228.054 17.19H228.074C228.181 16.5567 228.298 16.03 228.424 15.61L229.314 12.63H230.274L228.524 18H227.594L226.804 15.04C226.718 14.7133 226.604 14.2133 226.464 13.54H226.444C226.311 14.22 226.201 14.72 226.114 15.04L225.304 18H224.364L222.664 12.63H223.654ZM231.487 11.66C231.32 11.66 231.18 11.6067 231.067 11.5C230.954 11.3867 230.897 11.25 230.897 11.09C230.897 10.93 230.954 10.7967 231.067 10.69C231.18 10.5767 231.32 10.52 231.487 10.52C231.647 10.52 231.784 10.5767 231.897 10.69C232.01 10.7967 232.067 10.93 232.067 11.09C232.067 11.25 232.01 11.3867 231.897 11.5C231.784 11.6067 231.647 11.66 231.487 11.66ZM231.017 12.63H231.947V18H231.017V12.63ZM234.954 18.04C234.574 18.04 234.274 17.9533 234.054 17.78C233.841 17.6067 233.734 17.33 233.734 16.95V13.35H232.894V12.63H233.734V10.94H234.654V12.63H235.764V13.35H234.654V16.74C234.654 16.9267 234.701 17.0567 234.794 17.13C234.887 17.2033 235.024 17.24 235.204 17.24C235.364 17.24 235.521 17.2167 235.674 17.17H235.704V17.95C235.457 18.01 235.207 18.04 234.954 18.04ZM237.66 10.56V12.51C237.66 12.6633 237.653 12.8933 237.64 13.2L237.63 13.41H237.66C238.087 12.8033 238.66 12.5 239.38 12.5C239.947 12.5 240.39 12.6533 240.71 12.96C241.03 13.2667 241.19 13.6967 241.19 14.25V18H240.27V14.36C240.27 14.02 240.163 13.7567 239.95 13.57C239.743 13.3767 239.457 13.28 239.09 13.28C238.67 13.28 238.327 13.4167 238.06 13.69C237.793 13.9567 237.66 14.3033 237.66 14.73V18H236.73V10.56H237.66ZM248.589 18.15C247.856 18.15 247.212 17.9833 246.659 17.65C246.112 17.3167 245.689 16.8567 245.389 16.27C245.096 15.6833 244.949 15.02 244.949 14.28C244.949 13.54 245.096 12.8767 245.389 12.29C245.689 11.7033 246.112 11.2467 246.659 10.92C247.212 10.5867 247.856 10.42 248.589 10.42C249.322 10.42 249.962 10.5867 250.509 10.92C251.062 11.2467 251.489 11.7033 251.789 12.29C252.089 12.8767 252.239 13.54 252.239 14.28C252.239 15.02 252.089 15.6833 251.789 16.27C251.489 16.8567 251.062 17.3167 250.509 17.65C249.962 17.9833 249.322 18.15 248.589 18.15ZM248.589 17.24C249.136 17.24 249.602 17.1133 249.989 16.86C250.382 16.6067 250.679 16.2567 250.879 15.81C251.079 15.3633 251.179 14.8533 251.179 14.28C251.179 13.7 251.079 13.1867 250.879 12.74C250.679 12.2933 250.382 11.9433 249.989 11.69C249.602 11.43 249.136 11.3 248.589 11.3C248.042 11.3 247.572 11.43 247.179 11.69C246.786 11.9433 246.489 12.2967 246.289 12.75C246.089 13.1967 245.989 13.7067 245.989 14.28C245.989 14.8533 246.089 15.3633 246.289 15.81C246.489 16.2567 246.786 16.6067 247.179 16.86C247.572 17.1133 248.042 17.24 248.589 17.24ZM254.281 12.63V13.39H254.311C254.737 12.7967 255.304 12.5 256.011 12.5C256.577 12.5 257.021 12.6533 257.341 12.96C257.661 13.2667 257.821 13.6967 257.821 14.25V18H256.901V14.36C256.901 14.02 256.794 13.7567 256.581 13.57C256.374 13.3767 256.087 13.28 255.721 13.28C255.301 13.28 254.957 13.4167 254.691 13.69C254.424 13.9567 254.291 14.3033 254.291 14.73V18H253.361V12.63H254.281ZM261.404 18.14C260.87 18.14 260.404 18.0167 260.004 17.77C259.61 17.5167 259.307 17.1767 259.094 16.75C258.887 16.3167 258.784 15.8367 258.784 15.31C258.784 14.79 258.89 14.3167 259.104 13.89C259.324 13.4567 259.627 13.1167 260.014 12.87C260.407 12.6167 260.854 12.49 261.354 12.49C262.114 12.49 262.727 12.7667 263.194 13.32C263.634 13.8467 263.854 14.5833 263.854 15.53H259.734C259.767 16.0767 259.93 16.5233 260.224 16.87C260.517 17.21 260.914 17.38 261.414 17.38C261.78 17.38 262.087 17.3 262.334 17.14C262.58 16.9733 262.747 16.7467 262.834 16.46H263.744C263.624 16.9667 263.354 17.3733 262.934 17.68C262.52 17.9867 262.01 18.14 261.404 18.14ZM262.864 14.86C262.837 14.34 262.694 13.9367 262.434 13.65C262.174 13.3567 261.814 13.21 261.354 13.21C260.887 13.21 260.517 13.36 260.244 13.66C259.977 13.96 259.814 14.36 259.754 14.86H262.864ZM268.195 18.15C267.502 18.15 266.888 17.9867 266.355 17.66C265.828 17.3267 265.418 16.8667 265.125 16.28C264.838 15.6933 264.695 15.0267 264.695 14.28C264.695 13.5467 264.835 12.8867 265.115 12.3C265.402 11.7133 265.812 11.2533 266.345 10.92C266.878 10.5867 267.505 10.42 268.225 10.42C269.065 10.42 269.755 10.6367 270.295 11.07C270.555 11.29 270.765 11.55 270.925 11.85C271.085 12.1433 271.192 12.4633 271.245 12.81H270.225C270.138 12.35 269.918 11.9867 269.565 11.72C269.218 11.4467 268.765 11.31 268.205 11.31C267.692 11.31 267.248 11.4367 266.875 11.69C266.502 11.9433 266.218 12.2967 266.025 12.75C265.832 13.1967 265.735 13.7067 265.735 14.28C265.735 14.8667 265.835 15.3867 266.035 15.84C266.242 16.2867 266.532 16.6333 266.905 16.88C267.285 17.1267 267.722 17.25 268.215 17.25C268.855 17.25 269.352 17.0667 269.705 16.7C270.058 16.3267 270.258 15.8567 270.305 15.29H271.325C271.318 15.6633 271.235 16.0333 271.075 16.4C270.922 16.7667 270.708 17.0867 270.435 17.36C269.902 17.8867 269.155 18.15 268.195 18.15ZM277.264 17.35V18C277.09 18.0533 276.924 18.08 276.764 18.08C276.51 18.08 276.3 18.01 276.134 17.87C275.967 17.7233 275.864 17.5033 275.824 17.21H275.804C275.624 17.4767 275.384 17.6933 275.084 17.86C274.784 18.0267 274.424 18.11 274.004 18.11C273.47 18.11 273.034 17.98 272.694 17.72C272.354 17.4533 272.184 17.0733 272.184 16.58C272.184 16.18 272.274 15.8667 272.454 15.64C272.64 15.4133 272.894 15.25 273.214 15.15C273.54 15.0433 273.967 14.9567 274.494 14.89C274.94 14.8367 275.267 14.76 275.474 14.66C275.687 14.5533 275.794 14.3733 275.794 14.12C275.794 13.8267 275.694 13.5967 275.494 13.43C275.294 13.2633 275.01 13.18 274.644 13.18C274.23 13.18 273.914 13.2733 273.694 13.46C273.48 13.64 273.367 13.8933 273.354 14.22H272.454C272.467 13.9067 272.557 13.62 272.724 13.36C272.89 13.1 273.134 12.8933 273.454 12.74C273.774 12.58 274.167 12.5 274.634 12.5C275.174 12.5 275.607 12.5967 275.934 12.79C276.414 13.0767 276.654 13.5633 276.654 14.25V16.76C276.654 16.9667 276.684 17.1233 276.744 17.23C276.804 17.33 276.907 17.38 277.054 17.38C277.127 17.38 277.187 17.37 277.234 17.35H277.264ZM274.234 17.43C274.567 17.43 274.854 17.36 275.094 17.22C275.334 17.0733 275.51 16.8933 275.624 16.68C275.744 16.46 275.804 16.24 275.804 16.02V15.14C275.564 15.2933 275.17 15.42 274.624 15.52C274.284 15.58 274.014 15.6433 273.814 15.71C273.614 15.7767 273.454 15.88 273.334 16.02C273.22 16.1533 273.164 16.3367 273.164 16.57C273.164 17.1433 273.52 17.43 274.234 17.43ZM278.939 12.63V13.6H278.969C279.142 13.28 279.362 13.0267 279.629 12.84C279.902 12.6533 280.212 12.56 280.559 12.56C280.686 12.56 280.799 12.58 280.899 12.62V13.5H280.869C280.762 13.4667 280.636 13.45 280.489 13.45C280.209 13.45 279.952 13.5167 279.719 13.65C279.486 13.7833 279.299 13.9733 279.159 14.22C279.019 14.4667 278.949 14.7533 278.949 15.08V18H278.019V12.63H278.939ZM283.693 18.14C283.213 18.14 282.793 18.0267 282.433 17.8C282.079 17.5667 281.806 17.2367 281.613 16.81C281.419 16.3833 281.323 15.8833 281.323 15.31C281.323 14.7367 281.423 14.2367 281.623 13.81C281.829 13.3767 282.109 13.0467 282.463 12.82C282.823 12.5933 283.226 12.48 283.673 12.48C284.046 12.48 284.379 12.5667 284.673 12.74C284.966 12.9067 285.199 13.1367 285.373 13.43H285.393C285.373 13.19 285.363 12.86 285.363 12.44V10.56H286.293V18H285.373V17.21H285.353C285.179 17.5033 284.949 17.7333 284.663 17.9C284.383 18.06 284.059 18.14 283.693 18.14ZM283.763 17.37C284.316 17.37 284.729 17.1833 285.003 16.81C285.276 16.4367 285.413 15.94 285.413 15.32C285.413 14.7 285.269 14.2033 284.983 13.83C284.696 13.45 284.289 13.26 283.763 13.26C283.283 13.26 282.913 13.45 282.653 13.83C282.399 14.21 282.273 14.7067 282.273 15.32C282.273 15.9333 282.399 16.43 282.653 16.81C282.913 17.1833 283.283 17.37 283.763 17.37ZM86.98 30.15C86.4533 30.15 85.99 30.0267 85.59 29.78C85.1967 29.5267 84.89 29.1833 84.67 28.75C84.4567 28.3167 84.35 27.8367 84.35 27.31C84.35 26.79 84.4567 26.3167 84.67 25.89C84.89 25.4633 85.1967 25.1267 85.59 24.88C85.99 24.6267 86.4533 24.5 86.98 24.5C87.5067 24.5 87.9667 24.6267 88.36 24.88C88.7533 25.1267 89.0567 25.4633 89.27 25.89C89.4833 26.3167 89.59 26.79 89.59 27.31C89.59 27.8367 89.4833 28.3167 89.27 28.75C89.0567 29.1833 88.7533 29.5267 88.36 29.78C87.9667 30.0267 87.5067 30.15 86.98 30.15ZM86.97 29.38C87.5033 29.38 87.9133 29.1867 88.2 28.8C88.4933 28.4133 88.64 27.9167 88.64 27.31C88.64 26.71 88.4933 26.2133 88.2 25.82C87.9067 25.4267 87.4967 25.23 86.97 25.23C86.4433 25.23 86.0333 25.4267 85.74 25.82C85.4467 26.2133 85.3 26.71 85.3 27.31C85.3 27.9167 85.4433 28.4133 85.73 28.8C86.0233 29.1867 86.4367 29.38 86.97 29.38ZM91.4975 24.63V25.39H91.5275C91.9542 24.7967 92.5208 24.5 93.2275 24.5C93.7942 24.5 94.2375 24.6533 94.5575 24.96C94.8775 25.2667 95.0375 25.6967 95.0375 26.25V30H94.1175V26.36C94.1175 26.02 94.0108 25.7567 93.7975 25.57C93.5908 25.3767 93.3042 25.28 92.9375 25.28C92.5175 25.28 92.1742 25.4167 91.9075 25.69C91.6408 25.9567 91.5075 26.3033 91.5075 26.73V30H90.5775V24.63H91.4975ZM99.0766 22.56H104.367V23.46H100.097V25.71H103.957V26.56H100.097V29.07H104.477V30H99.0766V22.56ZM107.057 22.56L108.607 26.6C108.8 27.1133 109.05 27.89 109.357 28.93H109.377C109.69 27.8967 109.943 27.12 110.137 26.6L111.657 22.56H113.017V30H112.037V25.5C112.037 25.08 112.057 24.4433 112.097 23.59H112.077C111.87 24.3567 111.697 24.9233 111.557 25.29L109.747 30H108.947L107.147 25.29C107.007 24.9233 106.83 24.3567 106.617 23.59H106.597C106.637 24.4433 106.657 25.08 106.657 25.5V30H105.737V22.56H107.057ZM114.565 22.56H115.585V30H114.565V22.56ZM117.453 30.07C117.28 30.07 117.133 30.0133 117.013 29.9C116.893 29.78 116.833 29.6367 116.833 29.47C116.833 29.3033 116.893 29.1633 117.013 29.05C117.133 28.93 117.28 28.87 117.453 28.87C117.626 28.87 117.77 28.93 117.883 29.05C118.003 29.1633 118.063 29.3033 118.063 29.47C118.063 29.6367 118.003 29.78 117.883 29.9C117.77 30.0133 117.626 30.07 117.453 30.07Z" fill="white" fill-opacity="0.95"/>
</g>
<defs>
<clipPath id="clip0_488_8909">
<rect width="302" height="40" rx="2" fill="white"/>
</clipPath>
<clipPath id="clip1_488_8909">
<rect width="39.75" height="22.639" fill="white" transform="translate(18.625 9.9375)"/>
</clipPath>
</defs>
</svg>
